<svg version="1.1" id="Layer_1" xmlns="http://www.w3.org/2000/svg" xmlns:xlink="http://www.w3.org/1999/xlink" x="0px" y="0px"
	 width="100%" viewBox="0 0 192 192" enable-background="new 0 0 192 192" xml:space="preserve">
<path fill="#000000" opacity="1.000000" stroke="none" 
	d="
M95.686966,140.425003 
	C97.579117,143.963043 99.273056,147.191345 101.261803,150.981476 
	C108.858246,133.220627 121.009117,121.422806 141.303528,120.057426 
	C139.162567,113.009415 134.567810,107.450150 132.710800,100.256607 
	C142.944641,97.978882 141.412018,108.271072 146.382797,111.709930 
	C145.853958,108.204208 142.762894,105.876137 143.589386,101.835869 
	C152.007065,114.212387 160.424744,126.588905 169.742828,140.289307 
	C149.515244,138.014404 130.624863,134.834793 113.305161,145.832611 
	C132.403809,139.163956 151.166687,138.395920 170.720337,148.493698 
	C166.325256,149.971298 163.362549,148.350021 160.379517,148.196686 
	C141.433411,147.222794 122.794014,148.673401 104.621063,154.422592 
	C101.951088,155.267273 99.420540,155.018738 96.798164,154.199158 
	C76.937576,147.992172 56.677940,146.519638 36.077572,149.186813 
	C35.129158,149.309601 34.088173,149.527573 32.766697,148.003784 
	C51.635433,138.288330 70.424377,139.167053 89.570282,146.106140 
	C81.442139,140.643829 72.440887,138.313507 62.710674,138.047379 
	C53.237663,137.788284 43.870846,138.934021 33.622917,139.078568 
	C42.095592,126.522415 50.568272,113.966270 59.040951,101.410118 
	C59.530060,101.655800 60.019169,101.901482 60.508278,102.147156 
	C55.831455,111.315674 51.154636,120.484184 45.928810,130.728973 
	C61.429382,130.157806 75.818527,130.573486 88.451721,139.097748 
	C77.739395,128.623291 64.677246,125.807533 50.752728,127.623581 
	C49.483597,125.902489 50.136482,124.865891 50.667889,123.841560 
	C54.195641,117.041565 57.761684,110.261307 61.260262,103.446388 
	C62.944847,100.164955 65.290787,98.723442 69.659279,100.541740 
	C67.979721,107.245567 63.659683,112.867638 61.046352,120.025909 
	C75.994858,121.104813 87.459229,127.802040 95.686966,140.425003 
M125.453697,130.895584 
	C118.820747,134.397552 117.730598,135.205231 115.498360,138.393448 
	C128.028198,130.535294 141.894318,130.118317 156.828445,130.781021 
	C154.842377,127.091080 153.552109,124.693886 152.261841,122.296692 
	C151.429077,124.234619 153.143097,125.331276 152.139679,127.578178 
	C143.492325,127.101822 134.519012,126.690704 125.453697,130.895584 
z"/>
<path fill="#000000" opacity="1.000000" stroke="none" 
	d="
M75.603806,91.927063 
	C88.492500,94.263130 96.425453,101.770935 101.039642,113.987480 
	C102.474182,111.261871 103.582932,108.804131 104.994408,106.534668 
	C110.885902,97.061920 119.501183,92.237465 130.612442,91.666710 
	C134.895447,91.446701 137.106216,93.333008 137.572617,98.203384 
	C114.667572,98.535393 104.301849,111.982063 101.219528,133.679047 
	C98.228249,112.255089 88.007179,98.672516 65.377731,98.182915 
	C65.925926,91.965553 66.833046,91.423164 75.603806,91.927063 
z"/>
<path fill="#000000" opacity="1.000000" stroke="none" 
	d="
M93.551956,85.906136 
	C96.103706,80.983917 100.098923,79.729439 104.653664,81.069572 
	C108.548721,82.215614 110.438911,85.451271 110.265076,89.526390 
	C110.083862,93.774651 107.907112,96.738197 103.710312,97.867195 
	C97.257591,99.603073 92.013268,93.663574 93.551956,85.906136 
z"/>
<path fill="#000000" opacity="1.000000" stroke="none" 
	d="
M105.596207,58.962669 
	C109.988380,59.599159 110.122589,55.464165 112.374123,53.310139 
	C114.266869,56.671467 115.781693,60.269276 120.949310,59.033478 
	C117.866203,62.329334 116.652870,65.601608 118.430412,70.504623 
	C114.279472,67.784142 111.001396,66.697884 107.045906,70.985252 
	C107.831322,66.071938 107.460899,62.786041 104.026802,60.565075 
	C103.293259,60.090664 104.415131,59.240780 105.596207,58.962669 
z"/>
<path fill="#000000" opacity="1.000000" stroke="none" 
	d="
M83.717041,62.247658 
	C82.791252,61.357971 81.717522,60.950073 81.949799,59.224411 
	C85.846466,59.357914 88.735809,57.471619 90.454758,52.078022 
	C91.497658,57.751778 94.448334,59.316135 99.223717,59.451622 
	C95.774117,62.691887 93.474808,65.577545 95.720070,70.112343 
	C91.744354,67.453102 88.294525,67.350166 85.027428,70.021255 
	C83.253036,67.405159 87.161606,64.508461 83.717041,62.247658 
z"/>
<path fill="#000000" opacity="1.000000" stroke="none" 
	d="
M73.290665,72.073425 
	C73.350281,73.523880 73.444565,74.644867 73.577507,76.225533 
	C70.506165,75.455322 67.655731,73.387512 64.088043,77.596802 
	C64.851524,72.944199 64.880997,70.210091 61.816406,67.994965 
	C65.012077,66.810394 68.039131,66.209328 68.847748,61.875084 
	C70.812843,65.164055 72.186813,67.861259 75.468880,67.467697 
	C75.667572,69.866043 73.512955,70.220406 73.290665,72.073425 
z"/>
<path fill="#000000" opacity="1.000000" stroke="none" 
	d="
M135.097626,65.350212 
	C136.363571,67.543564 138.814850,66.176933 140.367218,67.891342 
	C138.979889,70.166084 136.287888,72.217682 138.543518,76.216110 
	C134.888916,74.883598 132.084244,74.372124 128.877579,76.732872 
	C129.389816,73.172646 129.748764,70.327843 126.209328,68.336464 
	C129.643890,67.283775 131.873672,65.735779 132.818420,63.064972 
	C134.575470,62.965027 134.273529,64.448402 135.097626,65.350212 
z"/>
<path fill="#000000" opacity="1.000000" stroke="none" 
	d="
M51.178551,79.097321 
	C52.991600,80.434555 54.047913,82.419228 57.245522,82.476677 
	C55.072372,84.825195 54.662300,86.847740 54.769726,89.039696 
	C52.493942,89.138077 50.618156,87.895592 48.486626,88.846985 
	C47.747803,86.753693 47.056328,84.794548 46.297020,82.643219 
	C47.989189,81.707146 49.945351,81.072426 51.178551,79.097321 
z"/>
<path fill="#000000" opacity="1.000000" stroke="none" 
	d="
M154.547150,88.112457 
	C152.439026,88.527321 150.398651,88.625763 148.221039,88.730827 
	C147.837219,86.697327 147.250748,84.867882 145.882019,83.079941 
	C147.746246,81.827553 149.973801,81.260948 150.562469,78.604340 
	C152.779770,79.989662 153.556152,82.639755 156.253326,82.062553 
	C155.935104,84.561508 154.001953,85.809219 154.547150,88.112457 
z"/>
</svg>